<svg width="24" height="24" viewBox="0 0 24 24" fill="none" xmlns="http://www.w3.org/2000/svg">
<g clip-path="url(#clip0_2454_85)">
<path d="M8.14819 1.28564V5.63777" stroke="#21272A" stroke-width="1.71415" stroke-linecap="round"/>
<path d="M15.8386 1.28564V5.63777" stroke="#21272A" stroke-width="1.71415" stroke-linecap="round"/>
<path d="M1.87175 18.0413C2.14831 20.5084 4.15376 22.4675 6.63364 22.587C8.3477 22.6695 10.0987 22.7123 11.9991 22.7123C13.8994 22.7123 15.6504 22.6695 17.3645 22.587C19.8443 22.4675 21.8499 20.5084 22.1264 18.0413C22.3127 16.3797 22.4654 14.6762 22.4654 12.9409C22.4654 11.2056 22.3127 9.50207 22.1264 7.84051C21.8499 5.37321 19.8443 3.41419 17.3645 3.29477C15.6504 3.21222 13.8994 3.16931 11.9991 3.16931C10.0987 3.16931 8.3477 3.21222 6.63364 3.29477C4.15376 3.41419 2.14831 5.37321 1.87175 7.84051C1.68551 9.50207 1.53271 11.2056 1.53271 12.9409C1.53271 14.6762 1.68551 16.3797 1.87175 18.0413Z" stroke="#21272A" stroke-width="1.71415"/>
<path d="M6.85669 10.3695H7.71305" stroke="#21272A" stroke-width="1.71415" stroke-linecap="round" stroke-linejoin="round"/>
<path d="M6.85669 15.5118H7.71305" stroke="#21272A" stroke-width="1.71415" stroke-linecap="round" stroke-linejoin="round"/>
<path d="M11.5706 10.3695H12.4269" stroke="#21272A" stroke-width="1.71415" stroke-linecap="round" stroke-linejoin="round"/>
<path d="M16.2844 10.3695H17.1408" stroke="#21272A" stroke-width="1.71415" stroke-linecap="round" stroke-linejoin="round"/>
<path d="M11.5706 15.5118H12.4269" stroke="#21272A" stroke-width="1.71415" stroke-linecap="round" stroke-linejoin="round"/>
</g>
<defs>
<clipPath id="clip0_2454_85">
<rect width="23.998" height="23.998" fill="white"/>
</clipPath>
</defs>
</svg>
