<svg width="24" height="24" viewBox="0 0 24 24" fill="none" xmlns="http://www.w3.org/2000/svg">
<path d="M23.1428 11.998H9.42847" stroke="#000001" stroke-linecap="round" stroke-linejoin="round"/>
<path d="M12.857 8.56946L9.42847 11.998L12.857 15.4266" stroke="#000001" stroke-linecap="round" stroke-linejoin="round"/>
<path d="M21.3942 17.9981C20.0965 20.0289 18.1754 21.5842 15.919 22.4308C13.6625 23.2774 11.1925 23.3696 8.87921 22.6936C6.56595 22.0176 4.53419 20.6099 3.08868 18.6815C1.64317 16.7531 0.861816 14.4081 0.861816 11.9981C0.861816 9.58808 1.64317 7.24302 3.08868 5.31465C4.53419 3.38627 6.56595 1.97852 8.87921 1.30254C11.1925 0.626551 13.6625 0.718772 15.919 1.56537C18.1754 2.41196 20.0965 3.96729 21.3942 5.99808" stroke="#000001" stroke-linecap="round" stroke-linejoin="round"/>
</svg>
