<svg width="406" height="379" viewBox="0 0 406 379" fill="none" xmlns="http://www.w3.org/2000/svg">
<path d="M253.632 220.308C253.632 241.921 253.958 265.334 250.463 286.747C249.749 291.124 249.486 311.186 243.173 312.424C234.18 314.187 229.908 291.224 228.744 286.096C225.925 273.652 221.829 261.269 218.723 248.975C217.959 245.936 215.679 242.421 216.13 239.082C217.107 231.865 224.961 231.84 229.169 227.788" fill="#C6CED9"/>
<path d="M204.193 226.287C204.193 247.899 204.519 271.312 201.024 292.725C200.31 297.102 200.047 317.164 193.734 318.402C184.741 320.166 180.469 297.202 179.305 292.074C176.486 279.63 172.39 267.248 169.284 254.953C168.52 251.914 166.24 248.399 166.691 245.06C167.668 237.843 175.522 237.818 179.73 233.766" fill="#C6CED9"/>
<path d="M113.357 254.453C106.593 262.545 106.468 274.152 108.735 283.845C110.401 290.999 113.57 296.327 116.989 302.518C118.279 304.857 121.749 308.234 121.361 311.023C121.073 313.024 119.056 313.725 117.089 314.05C114.797 314.425 104.276 310.648 100.593 308.959C97.6622 307.609 96.5099 306.571 94.869 303.907C92.8148 300.592 80.6524 276.366 79.1744 272.213C78.1473 269.337 78.4354 266.247 78.4354 263.146C78.4354 256.98 78.711 250.851 78.6734 244.672C81.5668 243.897 85.1742 244.622 88.0175 245.223C94.2678 246.561 100.631 247.224 106.894 248.462" fill="#C6CED9"/>
<path d="M244.025 78.3642C224.685 53.8125 203.404 61.5295 185.568 62.9803C170.424 64.2185 160.867 61.2168 152.788 74.4994C145.097 87.1567 136.116 116.711 128.551 128.893C121.198 140.725 115.65 147.079 103.111 153.257C82.8575 163.25 54.6748 148.304 39.7067 165.965C31.5776 175.57 25.7657 189.703 24.0246 202.773C23.198 209.014 22.2711 217.594 23.5111 223.885C24.4881 228.888 24.2752 234.854 25.2271 239.232C27.394 249.162 26.4797 256.016 25.3148 264.296C24.0372 273.351 36.4751 290.624 39.0053 299.791C44.0531 318.064 51.7439 319.453 61.1882 317.764C63.3927 317.364 64.9834 315.438 64.8958 313.199C64.2695 297.303 57.6309 270.425 61.5138 257.417C62.566 253.903 64.3196 248.224 68.0647 246.336C74.2775 243.184 77.7596 249.2 83.8095 252.239C98.0386 259.406 115.299 261.019 131.069 261.157C155.231 261.369 179.23 259.606 201.863 253.115C214.765 249.413 232.363 247.511 243.373 239.844C256.287 230.864 259.845 212.967 262.362 198.296C266.057 176.808 264.266 153.032 263.089 131.307C262.174 114.497 254.496 88.7827 244.012 78.3141L244.025 78.3642Z" fill="#C6CED9"/>
<path d="M44.7034 162.725C41.1586 165.727 36.2486 166.553 32.6287 169.654C29.8605 172.018 26.3158 174.957 25.1885 178.547C26.4661 178.422 27.0798 177.409 28.3574 177.446C26.4034 180.273 24.2866 182.937 22.9589 186.151C21.8817 188.753 21.794 191.254 21.0049 193.768C21.6562 191.942 22.4955 190.491 24.2991 189.678C24.1488 191.742 23.485 193.856 23.0842 195.732C23.3347 194.719 23.8733 193.831 24.4244 192.943C22.9338 197.495 20.2659 201.247 19.9778 206.225C19.7022 210.853 19.4517 215.831 19.7899 220.446C20.2784 219.145 21.2679 218.107 22.032 216.969C22.1322 221.397 21.2304 225.712 21.531 230.239C22.1447 229.151 22.3952 227.875 22.9589 226.737C23.4349 234.054 24.0111 241.033 27.0673 247.937C27.7437 240.845 27.894 234.454 31.2258 227.988C32.5786 225.361 33.8186 222.697 35.209 220.096C36.6369 217.432 39.6055 214.03 40.2067 211.091" fill="#C6CED9"/>
<path d="M217.883 83.4171C217.758 83.4547 217.645 83.5047 217.533 83.5672C214.639 85.2557 211.282 88.2824 210.493 91.4468C210.155 92.81 210.406 95.5866 209.717 96.6498C207.725 99.739 206.848 95.7492 205.684 93.9482C200.986 86.694 191.893 84.3677 184.252 86.7691C180.244 88.0323 174.357 89.5457 171.889 92.8226C167.706 98.4008 163.81 102.19 162.395 109.42C159.101 126.217 158.612 145.303 168.57 159.711C170.825 162.975 174.081 164.889 176.812 167.616C183.839 174.632 183.501 182.987 181.421 186.902C180.795 188.077 179.054 187.79 178.866 186.476C178.54 184.25 177.801 180.936 174.382 176.996C171.589 173.782 166.165 174.044 162.307 171.843C158.988 169.954 155.255 167.853 152.45 165.002C151.46 164.001 149.794 165.039 150.208 166.377C150.333 166.79 150.458 167.178 150.546 167.528C151.159 169.842 152.212 172.043 152.675 174.432C153.264 177.496 153.752 180.823 153.577 184.062C153.514 185.176 152.162 185.713 151.322 184.976C148.404 182.387 144.233 178.697 141.515 181.549C139.285 183.887 139.498 188.94 139.298 191.879C138.747 199.709 138.797 207.463 141.051 215.03C142.392 219.52 143.769 223.66 147.151 227.012C153.552 233.366 162.946 237.043 171.313 239.932C177.589 242.108 186.344 243.684 193.108 242.358C196.452 241.696 199.533 241.108 203.116 241.458C206.798 241.821 209.855 244.147 212.873 246.173C213.399 246.523 214.088 246.461 214.564 246.036C216.456 244.335 217.708 242.183 220.188 240.883C224.622 238.544 229.47 236.98 234.254 235.655C241.807 233.566 251.577 222.009 256.137 207.313C257.978 201.397 259.681 184.525 257.277 185.889C254.759 186.539 253.644 189.19 252.129 190.841C251.039 192.03 249.172 190.554 250.012 189.178C252.655 184.838 253.744 179.56 252.655 175.22C252.028 171.193 247.394 172.231 244.826 172.693C238.463 173.857 237.862 175.908 235.557 177.671C233.929 178.91 232.776 181.436 231.875 184.088C231.399 185.488 229.357 185.238 229.232 183.762C228.931 180.498 228.919 177.196 230.058 174.432C232.113 169.479 240.279 163.338 243.774 159.473C250.926 151.569 254.972 138.299 254.897 128.068C254.834 119.25 252.842 116.236 251.402 107.631C250.538 102.416 245.052 93.3479 241.369 89.4331C235.156 82.8418 228.63 80.2778 217.896 83.3921L217.883 83.4171Z" fill="white"/>
<path d="M52.9461 159.986C44.103 160.411 36.2118 155.584 32.6295 147.291C26.1162 132.17 35.1346 115.698 50.3157 110.758C59.3717 107.806 67.8516 111.446 72.937 119.125C77.847 126.567 75.0914 138.149 67.9893 143.114C65.9727 144.527 64.1189 145.29 61.7641 145.54C59.3717 145.803 54.0608 146.528 51.7436 145.353C50.1278 144.527 49.3262 142.438 51.6685 141.988C51.5933 140.487 49.4514 139.887 48.0736 140.137C44.9672 140.687 48.2991 147.229 50.6789 148.079C55.4888 149.793 48.5621 148.492 49.3262 148.917C59.6974 154.758 51.9565 152.169 51.6685 153.77C50.5286 159.961 52.1194 158.198 55.7017 158.26C55.589 159.186 55.7268 160.174 56.1777 160.987C56.3906 160.624 57.1547 160.186 57.3927 159.736C60.4489 162.663 63.7432 164.001 66.4487 160.024C66.4612 160.862 66.8746 161.487 67.2253 162.25C68.1271 161.725 68.8787 160.649 69.5676 159.924C70.8076 161.374 72.724 163.313 73.6509 160.424C76.3815 162.062 81.7801 158.635 83.7591 157.009C87.0659 154.27 92.3016 148.655 90.6231 143.827C95.6835 140.738 101.47 132.183 99.842 125.754C99.366 123.89 98.2137 122.602 97.8379 120.726C97.174 117.387 98.1009 113.872 97.2993 110.445C96.5227 111.446 95.8463 112.509 95.2701 113.634C94.243 110.095 93.5917 107.318 91.2745 104.379C88.9948 101.49 84.6985 97.6878 81.9805 102.215C80.1517 99.5388 78.323 96.1619 74.44 96.6997C74.4025 96.9248 74.3899 97.15 74.3899 97.3751C70.6698 94.4109 66.6741 94.4734 62.453 93.7355C60.737 93.4353 52.3949 90.5962 50.967 92.1221C50.3533 92.7724 50.6539 94.2733 50.729 95.1488C49.2886 92.2596 46.9212 91.9345 44.128 91.9345C39.4059 91.9345 35.4478 91.2841 34.5209 96.4496C32.0158 96.3995 29.4856 96.3245 26.9805 96.412C26.8677 98.2256 27.0681 99.1636 26.2665 100.427C25.803 101.165 24.7258 101.615 24.2248 102.491C23.9367 102.991 24.5254 103.891 24.2749 104.329C23.085 106.393 18.3628 106.655 17.7365 108.819C16.8723 111.833 22.6842 113.885 24.6006 114.848C19.7031 118.737 13.0394 119.725 9.41953 125.466C8.2797 127.28 8.64294 128.868 7.76615 130.607C6.1754 133.758 7.87888 139.875 11.4863 144.402C11.1606 146.466 7.92898 148.179 8.68052 150.105C9.48216 152.182 5.49901 153.295 7.24008 151.831C7.18997 152.957 7.57827 159.598 10.1961 157.86C10.4341 159.974 10.0458 162.087 10.0208 164.201C10.1961 163.738 10.5343 163.288 10.7097 162.913C10.7848 164.514 10.5343 166.177 11.2232 167.678C12.3881 166.903 13.3902 165.389 14.2294 164.226C14.768 169.179 18.4881 174.382 22.1957 177.509C23.5359 178.634 23.9493 178.334 25.1517 178.884C26.2665 179.397 27.3562 180.173 28.5462 180.723C32.0533 182.361 37.3016 178.747 40.7336 177.721C43.2512 176.971 46.4578 176.308 48.2239 174.219C50.5537 171.468 49.4264 167.691 50.1904 164.426" fill="#C6CED9"/>
<path d="M93.629 144.327C99.5161 144.452 109.036 139.499 110.338 133.233C109.85 133.721 109.186 133.909 108.672 134.296C109.023 133.183 109.875 132.145 109.837 130.869C108.622 130.819 107.307 130.907 106.142 130.769C107.745 125.879 108.059 119.976 107.507 114.873C107.132 111.371 105.616 108.094 105.065 104.679C104.877 104.892 104.526 105.092 104.301 105.33C103.725 103.003 102.522 100.164 101.495 98.0881C101.345 98.6259 100.844 99.0886 100.656 99.5764C99.5787 98.038 96.5851 92.1472 94.8565 92.9601C91.5247 89.8834 89.1449 85.7435 86.1262 82.379C85.8506 83.2295 85.7128 84.1426 85.6502 85.0431C84.5855 84.055 83.5709 82.9043 82.2182 82.279C81.7798 82.9794 81.8549 84.0425 81.8174 84.968C80.3143 84.0675 78.6484 82.1164 76.7194 81.9913C76.6318 82.8168 76.6067 83.6798 76.6568 84.5303C73.0369 82.6917 69.8429 81.0658 65.7345 81.2909C66.223 81.8662 66.4985 82.4416 66.9119 83.0419C64.77 79.8776 56.8037 79.665 53.6347 79.5149C53.9228 80.1903 54.1984 81.1158 54.3111 81.7537C46.3699 82.2415 36.3744 79.9401 29.7358 85.2932C30.9383 86.2187 32.4915 86.6315 33.7315 87.507C31.5896 87.4444 28.3705 86.8316 26.4541 88.0448C26.642 88.1574 26.8925 88.37 27.2057 88.5076C26.3289 89.1079 25.0137 89.208 24.2246 89.4706C24.926 89.8834 24.6504 90.0585 24.9761 90.4212C24.212 90.3711 23.6358 90.934 22.972 91.034C23.1975 91.4092 23.1849 91.8095 23.5482 92.2097C17.8866 94.6486 14.8178 96.3871 11.1353 101.453C9.95787 103.078 8.68026 104.617 7.74083 106.343C8.59258 106.455 9.55705 106.393 10.4589 106.455C10.2961 107.456 9.20633 108.432 8.78046 109.295C8.4548 109.957 8.58005 111.183 7.79094 112.021C8.25438 111.733 8.70531 111.496 9.1437 111.158C1.40287 116.499 1.84127 125.266 0 133.796C1.12731 132.971 2.40492 131.62 3.31929 130.469C2.96857 132.558 1.71601 134.346 1.5657 136.51C1.82874 136.26 2.21704 136.06 2.48007 135.847C2.25461 138.912 0.876794 141.713 0.964473 144.915C1.27761 144.027 1.54065 143.089 2.12936 142.551C2.55523 144.978 2.31724 147.767 2.20451 150.231C2.40492 149.568 2.78069 148.942 3.00615 148.292C2.85584 153.495 2.76816 158.998 4.47165 163.963C5.36097 166.577 7.00182 168.341 8.22933 170.68C8.20428 169.066 8.22933 167.453 8.19176 165.84C8.66773 168.804 10.1708 171.13 10.7219 173.919C10.8347 173.094 10.9349 172.256 10.9975 171.43C11.2981 172.006 11.7991 172.456 12.0371 173.169C12.2626 173.219 12.1624 172.981 12.3878 173.044C12.6885 173.732 13.2271 174.182 13.5402 174.87C13.5527 174.157 13.8533 173.194 13.941 172.556C15.6069 180.861 26.8424 181.036 33.6438 181.173C33.7691 179.022 30.7254 177.659 29.6857 175.983C33.0426 177.859 33.2806 178.672 35.7857 176.483C37.7773 174.732 40.4828 173.419 42.1863 171.418C44.2781 168.954 42.9253 169.054 40.7584 168.016C35.9861 165.727 32.5917 163.576 28.2202 160.511C24.9135 158.185 23.4605 154.483 22.8968 150.431C22.3582 146.503 22.2956 141.688 22.734 137.673C24.2246 123.903 33.3683 112.371 46.2195 106.893C55.9895 102.728 66.8242 103.354 74.7153 110.333C81.2287 116.086 81.4792 128.343 78.6358 136.273C76.5566 142.063 69.0287 147.054 62.7784 147.066C56.5281 147.091 51.1797 138.274 59.3464 136.56C59.8474 132.946 54.6368 137.698 53.9228 138.549C53.76 134.021 53.8852 132.295 49.1631 135.022C49.0378 134.559 48.5618 134.121 48.4491 133.696C47.7226 134.484 47.0838 135.46 46.207 135.835C46.0692 138.399 46.1569 140.988 46.1694 143.552C46.0191 142.589 45.5557 142.364 44.7415 141.826C44.6037 142.951 44.7039 144.115 44.6664 145.265C44.1152 145.153 43.2886 145.49 42.7124 145.353C42.0861 148.017 46.1319 148.129 47.4596 149.543C45.9941 149.843 45.0672 151.231 46.3448 152.344C43.6518 153.307 43.5516 155.121 46.4074 155.584C45.8187 158.898 47.6976 159.548 50.3781 158.798C51.3676 160.787 53.3466 162.413 55.3257 160.511C57.6304 163.763 58.2316 162.312 61.7012 161.662C62.0018 162.8 62.1146 164.226 62.5154 165.464C64.4318 165.814 68.1895 166.703 69.4546 164.851C69.8053 166.853 70.4441 167.203 71.6591 168.554C73.0995 167.853 73.9763 166.34 75.1788 165.302C78.3728 166.978 78.7736 167.015 81.3539 164.251C84.6231 168.829 87.0531 160.361 89.0572 158.535C93.5539 154.458 96.8105 151.181 93.5914 144.315L93.629 144.327Z" fill="white"/>
<path d="M242.648 81.7287C244.138 66.5324 247.094 46.9462 238.94 33.1383C234.193 25.1086 226.64 29.8239 222.093 35.8148C218.097 41.0928 201.764 62.6052 198.344 68.271C195.852 72.3983 202.879 63.956 202.703 68.7587C202.302 79.7776 226.652 83.2796 235.157 84.2176" fill="#C6CED9"/>
<path d="M240.493 74.8498C241.207 63.7935 242.647 49.5478 238.701 39.5045C236.409 33.6637 232.752 37.0906 230.56 41.4556C228.631 45.2953 222.844 52.0492 221.191 56.1766C219.988 59.1783 216.168 61.9299 216.08 65.4194C215.892 73.4365 237.136 78.2143 240.505 74.8498" fill="white"/>
<path d="M156.031 81.7287C154.54 66.5324 151.584 46.9462 159.739 33.1383C164.486 25.1086 172.039 29.8239 176.586 35.8148C180.581 41.0928 196.915 62.6052 200.334 68.271C202.827 72.3983 195.8 63.956 195.975 68.7587C196.376 79.7776 172.026 83.2796 163.521 84.2176" fill="#C6CED9"/>
<path d="M158.186 74.8498C157.472 63.7935 156.032 49.5478 159.977 39.5045C162.27 33.6637 165.927 37.0906 168.119 41.4556C170.048 45.2953 175.847 52.0492 177.488 56.1766C178.691 59.1783 182.511 61.9299 182.599 65.4194C182.787 73.4365 161.543 78.2143 158.174 74.8498" fill="white"/>
<path d="M226.215 152.832C222.244 158.76 216.87 157.447 210.57 157.735C211.171 162.813 216.119 162.575 220.44 162.175C225.363 161.712 226.478 158.785 226.227 152.832H226.215Z" fill="#A0AEC0"/>
<path d="M190.102 113.885C192.828 113.885 195.037 111.678 195.037 108.957C195.037 106.235 192.828 104.029 190.102 104.029C187.377 104.029 185.167 106.235 185.167 108.957C185.167 111.678 187.377 113.885 190.102 113.885Z" fill="#A0AEC0"/>
<path d="M226.838 107.631C226.838 110.595 229.243 113.009 232.224 113.009C235.205 113.009 237.61 110.608 237.61 107.631C237.61 104.654 235.205 102.253 232.224 102.253C229.243 102.253 226.838 104.654 226.838 107.631Z" fill="#A0AEC0"/>
<path d="M221.716 121.114C218.897 120.964 216.004 121.089 213.223 121.289C211.795 121.402 210.893 121.352 211.144 123.103C211.733 127.33 218.647 132.308 221.327 127.255C222.116 125.767 221.954 123.44 221.728 121.114H221.716Z" fill="#A0AEC0"/>
<path d="M230.308 120.026C230.571 123.628 228.455 128.981 226.363 132.133C225.636 133.221 224.509 134.246 223.106 134.547C221.791 134.822 219.837 134.547 218.86 133.596C218.246 132.996 218.321 132.37 217.883 131.783C217.282 134.397 216.23 134.984 213.198 134.672C210.806 134.422 207.386 133.696 205.533 132.32C202.89 130.344 200.497 127.693 199.796 124.716C199.57 123.74 199.224 122.256 198.756 120.263C198.468 122.627 199.22 125.654 199.971 127.893C200.886 130.632 202.439 132.52 204.731 134.559C207.148 136.698 210.18 138.899 213.524 139.449C216.505 139.937 220.914 140.287 223.357 138.561C226.275 136.485 229.056 133.458 229.77 129.994C230.296 127.443 231.573 122.827 230.296 120.038L230.308 120.026Z" fill="#A0AEC0"/>
<path d="M225.073 134.434C223.433 135.335 223.094 135.385 221.566 135.435C220.952 135.46 218.021 134.297 218.021 134.297C218.021 134.297 216.356 135.898 214.577 135.785C213.249 135.697 211.846 135.047 210.669 135.022C211.233 137.148 211.345 139.3 212.109 141.376C212.711 143.014 213.149 144.69 214.189 146.103C214.865 147.029 217.32 147.417 218.472 147.629C219.875 147.879 222.28 147.692 223.382 146.954C225.712 145.416 226.101 143.777 226.213 141.901C226.288 140.675 225.098 135.898 225.073 134.434Z" fill="#C6CED9"/>
<path d="M358.448 218.595C370.243 227.099 376.213 256.507 356.442 258.522L356.418 258.534C357.085 260.25 357.628 262.149 358.172 264.055C359.431 268.463 360.702 272.91 363.553 275.23C366.952 277.988 371.252 275.613 374.795 273.191C384.068 266.846 391.539 256.987 396.368 246.948C397.963 243.627 398.974 240.3 399.553 236.956L399.683 237.33C402.928 234.462 403.772 232.113 404.342 228.261C404.366 228.326 404.39 228.391 404.416 228.454C404.44 228.232 404.449 228.008 404.458 227.783C404.467 227.558 404.476 227.333 404.5 227.111C404.448 227.509 404.396 227.892 404.342 228.261C404.163 227.771 404.022 227.218 403.88 226.666C403.574 225.469 403.268 224.276 402.59 223.741C401.955 221.594 401.838 219.244 401.721 216.894C401.638 215.239 401.556 213.584 401.293 211.999C401.209 212.357 401.087 212.713 400.963 213.075C400.768 213.648 400.566 214.238 400.5 214.877C400.004 212.826 399.72 210.612 399.432 208.364C398.834 203.698 398.217 198.888 395.647 195.1C395.647 196.599 395.323 198.146 394.578 199.286L394.576 199.269C394.276 196.668 393.852 192.987 391.023 192.173C391.023 192.531 390.916 192.995 390.807 193.463C390.777 193.595 390.746 193.727 390.718 193.857C387.759 189.521 384.085 185.816 379.912 183.754C377.583 182.605 375.098 182.475 372.624 182.346C370.863 182.253 369.109 182.162 367.42 181.703C362.846 180.456 363.134 178.271 363.49 175.561C363.644 174.385 363.812 173.111 363.601 171.772C362.072 171.662 360.523 171.894 359.027 172.119C358.89 172.139 358.753 172.16 358.616 172.18C359.049 169.421 359.481 164.216 358.412 161.817C357.854 162.128 357.215 162.268 356.581 162.406C356.014 162.53 355.451 162.653 354.953 162.897C354.52 161.661 354.304 160.198 354.34 158.819C347.986 158.975 340.203 161.673 336.755 167.406C336.739 167.095 336.586 166.641 336.42 166.146C336.214 165.534 335.988 164.861 335.975 164.324C335.603 164.689 334.996 164.93 334.426 165.157C333.947 165.347 333.493 165.528 333.224 165.763C333.281 165.375 333.235 164.938 333.189 164.503C333.138 164.023 333.088 163.545 333.176 163.137C325.549 172.192 321.153 178.525 321.201 191.718C321.204 192.379 321.201 193.058 321.197 193.749C321.161 200.158 321.119 207.627 326.822 211.687C329.567 213.633 332.82 213.516 336.07 213.398C336.846 213.37 337.621 213.342 338.389 213.342C345.992 213.318 352.19 214.086 358.448 218.595Z" fill="#D9DFE6"/>
<path d="M369.737 259.615C373.34 259.927 378.794 263.717 381.04 266.416C382.361 268.011 383.922 269.918 384.583 271.897C383.79 271.165 382.709 270.433 381.989 269.858C382.625 271.333 384.367 273.744 384.295 275.111C383.79 274.715 383.19 274.439 382.709 274.008C383.01 276.046 384.067 277.881 384.163 279.968C384.163 279.8 384.139 279.645 384.127 279.477C385.58 284.37 386.973 290.043 386.301 295.128C385.652 294.589 385.232 293.737 384.763 293.173C385.964 299.842 387.562 305.983 386.913 312.831C386.865 312.495 386.757 312.075 386.721 311.716C386.397 313.671 386.409 315.638 386.325 317.605C386.205 317.377 385.856 317.017 385.712 316.645C385.388 318.264 384.943 319.871 384.355 321.394C384.187 321.323 384.115 321.179 384.163 320.975C382.721 322.462 382.181 324.825 380.511 326.18C380.139 325.185 379.538 324.213 379.13 323.206C378.001 324.561 377.304 326.468 375.935 327.583C375.779 327.175 375.286 326.816 375.13 326.384C373.136 327.032 370.71 331.109 368.956 332.525C368.019 330.474 368.067 327.631 367.611 325.388C366.698 320.807 366.266 315.182 364.128 310.984" fill="#D9DFE6"/>
<path d="M259.533 320.579C266.752 332.297 269.142 348.5 269.142 362.281C269.142 365.075 269.298 367.93 269.142 370.724C269.046 372.344 267.749 375.342 268.241 376.805C269.37 380.211 274.307 377.657 276.181 376.457C283.328 371.864 285.934 362.641 286.691 354.713C287.46 346.713 294.835 333.112 294.907 325.029C294.919 323.673 289.73 326.983 289.273 325.676C288.168 322.51 283.051 320.543 280.553 318.48" fill="#D9DFE6"/>
<path d="M228.424 285.893C228.82 280.532 231.402 248.017 223.787 307.794C223.211 312.291 223.895 316.837 224.111 321.358C224.448 328.279 224.087 335.391 222.826 342.215C221.601 348.836 219.727 365.927 218.478 367.186C216.1 369.561 217.001 371.024 218.394 371.3C233.588 374.346 236.315 354.065 240.015 349.663C244.242 344.626 256.674 326 258.932 319.379C260.326 315.314 251.257 326.432 250.957 322.102C250.633 317.412 244.17 311.56 241.372 308.417" fill="#D9DFE6"/>
<path d="M319.591 333.172C320.179 341.987 322.894 351.079 321.357 360.086C320.636 364.296 319.05 367.558 316.78 370.952C313.886 375.27 316.084 378.076 321.116 375.522C325.897 373.099 330.882 369.945 334.473 365.831C338.124 361.657 339.71 356.632 340.755 351.091C341.776 345.657 342.064 340.488 344.334 335.127C345.271 332.92 347.325 330.114 346.64 327.535C345.235 322.258 334.593 324.201 330.101 324.177" fill="#D9DFE6"/>
<path d="M302.185 245.726C311.457 259.627 326.544 255.309 341.029 253.138C350.867 251.663 361.184 252.874 369.064 258.883C381.135 268.094 383.634 285.197 383.694 300.165C383.718 305.91 384.763 312.459 381.844 317.412C379.658 321.106 376.127 324.441 374.085 327.907C370.229 334.467 376.451 339.553 375.094 346.389C373.604 353.945 369.749 362.257 366.445 369.093C365.953 370.125 364.452 373.627 363.298 374.154C362.205 374.67 359.335 374.13 358.578 372.823C357.317 370.64 360.416 358.671 352.909 343.079C349.593 336.182 347.299 337.586 339.096 329.382C332.694 334.204 327.409 332.512 319.925 335.463C314.364 337.646 285.201 337.982 274.559 333.748C267.604 330.977 260.794 326.216 254.68 321.97C251.509 319.775 246.476 315.961 245.155 312.051C242.813 305.107 244.518 294.66 244.158 287.392C243.545 274.883 251.088 263.945 260.637 256.185C265.502 252.227 269.033 252.647 274.15 250.392" fill="#D9DFE6"/>
<path d="M217.481 246.314C217.517 251.963 212.881 257.156 212.268 262.949C211.56 269.654 214.106 275.135 215.151 281.479C215.499 279.608 216.34 277.737 217.409 276.322C217.649 280.076 217.89 284.058 217.938 287.764C218.094 287.596 218.19 287.404 218.226 287.176C218.79 289.359 219.535 291.686 220.16 293.749C220.976 292.669 221.337 291.338 221.193 289.971C222.478 292.646 224.075 296.352 224.94 298.81C225.012 297.671 225.505 296.316 225.661 295.284C227.619 302.013 228.868 307.937 232.387 313.898C234.237 317.029 236.916 319.847 238.849 322.87C238.861 322.21 239.162 321.43 239.174 320.711C244.182 323.061 253.011 332.776 258.584 328.351C259.389 329.442 260.41 329.898 261.467 330.51C261.503 330.306 261.515 330.102 261.503 329.898C263.773 330.593 270.992 337.646 273.31 338.161C273.31 338.161 277.069 325.304 277.562 321.166C278.247 315.445 281.345 310.516 282.811 304.843C284.36 307.602 284.649 311.02 286.042 313.886C286.498 311.464 288.192 309.353 289.285 307.206C292.408 301.089 294.005 294.541 295.315 287.764C296.972 279.237 298.101 272.208 298.51 263.549C298.858 264.041 299.951 264.64 300.359 265.204C303.026 256.485 301.068 249.013 297.849 240.941C297.14 239.154 296.216 235.448 294.606 234.296C291.771 232.281 284.985 235.316 282.078 235.951C263.617 240.005 245.191 240.965 226.442 241.121" fill="white"/>
<path d="M232.038 188.169C231.63 186.765 229.684 185.614 228.735 184.583C226.369 182.016 224.627 178.993 222.141 176.475C220.952 175.263 219.823 173.992 218.61 172.805C218.249 172.457 217.721 171.881 217.096 171.246C215.09 169.219 211.643 170.226 211.031 173.009C210.85 173.812 210.694 174.628 210.526 175.407C208.941 182.759 208.652 189.896 208.304 197.368C208.184 199.839 207.631 202.969 208.304 205.38C209.229 208.69 212.412 212.3 215.475 213.751C217.673 214.795 218.634 214.339 220.628 213.02C223.234 211.28 223.643 209.421 225.144 206.819C225.985 205.356 227.462 204.252 228.123 202.717" fill="#D9DFE6"/>
<path d="M223.823 197.644C223.474 194.309 217.469 186.118 216.123 183.167C215.535 181.884 215.175 180.361 214.418 179.113C214.094 178.574 213.265 178.802 213.205 179.425C212.976 181.788 212.292 184.283 212.064 186.598C211.811 189.104 211.571 191.611 211.355 194.118C211.091 197.092 210.466 202.177 211.775 204.804C212.184 205.607 212.448 206.135 213.241 205.931C214.069 205.715 215.895 201.698 216.388 200.762C217.24 199.131 218.177 197.2 218.67 195.437" fill="white"/>
<path d="M270.057 186.43C270.237 184.978 271.979 183.527 272.748 182.364C274.682 179.449 275.919 176.187 277.973 173.309C278.958 171.929 279.87 170.49 280.867 169.135C281.168 168.739 281.6 168.079 282.105 167.36C283.762 165.033 287.329 165.489 288.374 168.139C288.675 168.907 288.963 169.686 289.251 170.43C291.99 177.446 293.395 184.439 294.933 191.767C295.437 194.19 296.482 197.188 296.206 199.683C295.821 203.101 293.251 207.167 290.452 209.086C288.447 210.465 287.426 210.165 285.251 209.17C282.405 207.862 281.708 206.099 279.81 203.76C278.741 202.441 277.12 201.59 276.219 200.186" fill="#D9DFE6"/>
<path d="M279.497 194.106C279.316 190.759 284.109 182.1 284.974 178.97C285.346 177.614 285.466 176.043 286.019 174.7C286.259 174.124 287.1 174.208 287.268 174.808C287.869 177.111 288.938 179.461 289.538 181.716C290.175 184.151 290.823 186.586 291.436 189.032C292.169 191.935 293.586 196.84 292.709 199.647C292.433 200.51 292.265 201.062 291.436 200.99C290.595 200.906 284.794 208.75 284.169 207.898C283.064 206.423 280.277 199.659 279.521 198.004" fill="white"/>
<path d="M218.142 196.168C214.098 201.054 210.679 207.335 207.884 215.01C206.76 216.903 205.676 219.248 204.723 221.896C200.596 225.429 198.312 229.456 196.726 234.752C196.888 234.48 197.134 234.212 197.373 233.951C197.577 233.728 197.777 233.511 197.915 233.301C197.988 234.762 197.769 236.02 197.546 237.308C197.401 238.145 197.253 238.995 197.182 239.921C197.338 239.897 197.494 239.921 197.639 239.981C197.533 240.401 197.42 240.82 197.307 241.24C197.005 242.355 196.703 243.476 196.546 244.635C196.817 244.411 197.166 244.279 197.49 244.157C197.738 244.063 197.971 243.975 198.143 243.855C198.303 246.816 197.042 249.958 195.81 253.027C194.921 255.241 194.047 257.418 193.735 259.459C193.875 259.378 194.017 259.295 194.16 259.212C195.113 258.653 196.107 258.071 197.11 257.852C197.025 258.285 197.06 258.743 197.095 259.194C197.129 259.63 197.163 260.06 197.086 260.455C197.224 260.302 197.406 260.154 197.577 260.016C197.688 259.925 197.793 259.839 197.879 259.759C197.872 260.257 198.093 260.734 198.306 261.195C198.453 261.511 198.596 261.819 198.66 262.122C198.9 262.026 199.203 262.02 199.479 262.015C199.686 262.011 199.878 262.007 200.017 261.966C199.939 262.262 200.004 262.658 200.065 263.036C200.119 263.362 200.169 263.675 200.125 263.897C201.206 263.681 202.263 263.357 203.32 263.033C203.068 264.029 202.671 265.012 202.155 265.924C203.476 266.051 204.885 265.875 206.295 265.698C207.282 265.575 208.27 265.452 209.23 265.432C209.06 265.692 208.914 266.168 208.763 266.66C208.594 267.212 208.419 267.784 208.197 268.095C210.945 268.245 213.872 268.403 216.765 268.332C221.964 269.853 227.829 269.246 233.814 268.459L226.394 269.606C230.454 272.328 236.027 275.327 240.663 276.382C240.626 276.051 240.629 275.749 240.633 275.456C240.64 274.814 240.648 274.217 240.219 273.468C240.481 273.847 240.823 274.151 241.162 274.452C241.412 274.675 241.662 274.897 241.876 275.147C241.876 274.94 241.912 274.683 241.949 274.412C241.996 274.072 242.046 273.71 242.032 273.396C242.232 273.53 242.485 273.616 242.759 273.709C243.194 273.857 243.681 274.022 244.086 274.427C244.086 274.344 244.131 274.164 244.187 273.937C244.301 273.476 244.463 272.822 244.399 272.388C245.298 272.733 246.16 273.179 247.018 273.623C248.223 274.246 249.421 274.866 250.705 275.195C250.679 274.908 250.769 274.496 250.855 274.1C250.931 273.752 251.004 273.417 250.993 273.192C252.003 273.605 253.033 273.927 254.043 274.243C254.967 274.532 255.874 274.815 256.734 275.159C256.843 274.717 257.01 274.281 257.179 273.842C257.459 273.114 257.74 272.38 257.755 271.609C259.592 271.529 260.97 271.842 262.218 272.125C264.179 272.57 265.819 272.942 268.409 271.609C271.335 270.109 274.331 268.521 277.302 266.946C278.681 266.215 280.054 265.487 281.412 264.773C288.123 264.108 295.053 262.945 300.18 260.274C300.372 260.25 300.563 260.226 300.755 260.202L301.008 260.17C302.507 259.982 304.001 259.793 305.488 259.651C305.398 259.331 305.449 258.925 305.498 258.537C305.54 258.2 305.58 257.876 305.524 257.636C306.182 257.61 306.865 257.637 307.552 257.664C309.086 257.725 310.646 257.786 312.022 257.264C312.016 256.973 312.132 256.639 312.236 256.339C312.316 256.108 312.39 255.897 312.395 255.741C313.32 256.149 314.413 256.485 315.301 256.629C315.705 254.646 314.924 252.693 314.183 250.84C313.579 249.331 313.002 247.889 313.115 246.554C313.74 246.853 314.325 247.214 314.912 247.576C315.454 247.91 315.998 248.245 316.575 248.533C316.599 246.518 316.19 244.227 315.662 242.32C315.416 241.43 314.871 240.449 314.314 239.447C313.453 237.9 312.566 236.304 312.719 234.92C312.864 234.954 313.137 234.951 313.422 234.948C313.75 234.944 314.094 234.941 314.281 234.992C313.32 232.869 311.782 230.77 310.065 229.187C310.353 229.285 310.705 229.308 311.058 229.331C311.396 229.353 311.735 229.375 312.022 229.463C311.074 228.719 310.569 227.52 310.797 226.333C308.887 225.313 306.966 223.598 305.692 221.895C305.837 221.885 306.032 221.832 306.247 221.772C306.549 221.689 306.892 221.595 307.194 221.595C306.37 219.441 303.587 217.854 301.153 216.564C300.163 214.706 299.171 213.02 298.234 211.568C297.518 210.462 296.826 209.36 296.139 208.266C292.833 203.004 289.642 197.924 284.541 193.386C275.676 185.494 270.956 184.451 259.101 184.451L258.674 184.451C244.461 184.449 227.822 184.448 218.142 196.168Z" fill="#D9DFE6"/>
<path d="M235.966 224.486C236.159 226.56 234.621 228.407 232.543 228.599C230.465 228.791 228.615 227.256 228.423 225.181C228.231 223.106 229.768 221.259 231.846 221.067C233.924 220.875 235.774 222.411 235.966 224.486Z" fill="#A0AEC0"/>
<path d="M276.626 220.276C276.818 222.351 275.281 224.198 273.203 224.39C271.125 224.581 269.275 223.046 269.083 220.971C268.891 218.896 270.428 217.049 272.506 216.858C274.584 216.666 276.434 218.201 276.626 220.276Z" fill="#A0AEC0"/>
<path d="M248.973 224.402C251.159 223.418 254.042 222.974 256.444 223.262C257.189 223.346 257.825 223.274 258.162 224.006C258.45 224.642 258.21 225.577 258.018 226.165C257.417 228.024 256.072 230.087 253.994 230.195C252.228 230.279 250.378 229.367 249.081 228.228C248.553 227.76 246.246 225.421 248.973 224.39V224.402Z" fill="#A0AEC0"/>
<path d="M248.901 240.437C250.426 240.293 251.543 240.305 252.576 239.31C253.717 238.206 254.51 236.791 254.642 235.364C254.834 233.181 254.354 230.926 254.162 228.755C254.222 231.07 255.531 233.313 256.252 235.46C256.636 236.611 256.912 237.571 257.909 238.458C259.074 239.49 261.537 239.838 262.558 238.65" stroke="#A0AEC0" stroke-width="0.61231" stroke-linecap="round" stroke-linejoin="round"/>
<path d="M263.833 248.017C264.469 253.558 256.434 256.7 251.978 256.401C254.056 256.88 260.157 258.584 262.463 257.228C264.722 255.897 264.073 250.836 263.821 248.017H263.833Z" fill="#A0AEC0"/>
<path d="M250.248 219.268C248.735 217.757 245.275 211.412 245.312 209.17C245.275 209.29 245.312 209.493 245.312 209.613C245.299 209.529 245.312 209.445 245.324 209.362C245.444 209.386 245.528 209.457 245.576 209.577C245.636 209.23 245.612 208.834 245.6 208.45C245.708 208.726 245.96 208.978 246.068 209.134C246.14 207.97 245.456 206.615 245.107 205.5C244.459 203.461 243.93 201.47 243.834 199.323C243.762 197.704 243.882 196.108 243.942 194.525C244.567 195.161 244.627 196.192 245.504 196.66C245.54 195.305 245.552 193.95 245.6 192.594C245.624 191.731 245.287 190.376 245.84 189.644C247.75 190.735 248.278 194.489 248.807 196.42C249.107 197.512 249.299 198.531 249.503 199.599C249.552 199.047 249.936 198.519 250.284 198.147C251.101 200.366 250.669 203.389 250.597 205.703C250.765 205.344 250.981 205.02 251.293 204.792C251.509 205.799 251.161 206.987 251.521 207.922C251.641 207.766 251.894 207.67 251.99 207.538C252.254 210.945 251.353 217.361 250.224 219.268H250.248Z" fill="white"/>
<path d="M223.824 230.902C218.635 226.513 203.429 228.108 196.883 228.839C188.967 229.715 180.932 233.025 172.98 232.905" stroke="white" stroke-width="2" stroke-linecap="round" stroke-linejoin="round"/>
<path d="M212.211 237.307C198.626 236.947 188.584 247.597 176.177 250.5" stroke="white" stroke-width="2" stroke-linecap="round" stroke-linejoin="round"/>
<path d="M219.886 241.984C207.875 249.001 191.864 255.034 182.651 265.576" stroke="white" stroke-width="2" stroke-linecap="round" stroke-linejoin="round"/>
<path d="M218.623 248.017C210.239 254.41 202.107 261.414 194.204 268.406" stroke="white" stroke-width="2" stroke-linecap="round" stroke-linejoin="round"/>
<path d="M286.981 226.501C291.017 221.031 306.187 219.077 312.709 218.273C320.613 217.301 329.201 218.657 336.912 216.714" stroke="white" stroke-width="2" stroke-linecap="round" stroke-linejoin="round"/>
<path d="M299.75 230.039C312.878 226.549 325.117 234.596 337.862 234.548" stroke="white" stroke-width="2" stroke-linecap="round" stroke-linejoin="round"/>
<path d="M293.371 236.359C306.691 240.413 323.663 242.584 335.062 250.716" stroke="white" stroke-width="2" stroke-linecap="round" stroke-linejoin="round"/>
<path d="M296.003 241.936C305.636 246.23 315.173 251.16 324.482 256.137" stroke="white" stroke-width="2" stroke-linecap="round" stroke-linejoin="round"/>
<path d="M363.187 124.386C365.589 129.544 369.204 134.053 372.075 138.947C375.967 145.591 379.186 153.723 384.099 159.648C385.78 161.675 387.786 163.414 389.792 165.009C390.164 162.262 388.543 157.777 387.714 155.09C385.083 146.551 380.279 136.416 374.682 129.496C377.264 136.656 382.909 143.888 386.873 150.389C389.648 154.946 390.969 160.691 395.017 164.397C395.209 155.426 392.939 146.179 387.618 138.707C384.375 134.149 380.759 129.472 377.324 124.926C374.009 120.536 373.204 121.34 367.175 121.34" fill="#D9DFE6"/>
<path d="M358.921 90.1564C363.389 93.3707 364.59 96.4171 367.089 101.31C370.764 108.495 374.62 115.643 379.052 122.395C382.439 127.553 385.886 133.118 389.334 138.035C382.823 139.462 379.833 134.101 374.872 130.431C376.229 133.214 380.565 137.711 380.097 140.95C377.719 141.609 374.956 137.184 373.394 135.816C373.587 138.215 374.295 140.59 374.163 143.012C364.746 144.824 359.906 125.778 356.819 120.26C355.257 117.454 354.08 114.791 353.011 111.745C352.339 109.85 347.126 100.051 347.666 98.516C348.351 96.609 349.348 97.2206 351.294 96.0812C353.624 94.714 354.873 91.9794 358.921 90.1564Z" fill="white"/>
<path d="M272.835 118.318C272.018 115.259 274.456 112.357 277.615 112.561C284.029 112.98 291.116 112.129 296.761 111.889C305.121 111.541 313.445 111.409 321.817 111.409C328.735 111.409 335.642 111.409 342.561 111.409C354.031 111.409 365.502 111.745 376.961 111.709C380.637 111.709 384.312 111.709 387.975 111.709C389.273 111.709 392.348 111.181 393.585 112.009C395.35 113.196 395.314 115.211 394.954 117.514C394.378 121.208 392.732 120.776 388.948 120.872C374.21 121.244 359.485 121.76 344.723 121.184C322.213 120.308 299.704 122.12 277.231 121.832C275.189 121.808 273.411 120.416 272.883 118.449C272.871 118.389 272.859 118.342 272.835 118.282V118.318Z" fill="#C6CED9"/>
<path d="M296.557 49.0542C289.831 45.7079 290.107 56.0465 290.503 59.8844C291.452 68.8317 300.905 79.8179 307.259 86.0307C305.541 77.2513 299.86 69.0356 298.178 60.4721" fill="#C6CED9"/>
<path d="M317.265 11.9456C286.528 15.6517 286.792 95.6375 328.039 109.262C334.538 111.409 345.768 109.634 352.567 108.315C360.398 106.792 366.043 103.865 369.166 95.2896C372.385 86.4263 368.83 72.1419 366.56 63.3625C364.266 54.4872 354.26 47.219 348.591 39.9629C341.12 30.4159 334.345 9.88273 317.265 11.9456Z" fill="#D9DFE6"/>
<path d="M326.2 105.772C319.389 102.558 321.299 116.494 323.017 119.997C323.413 120.668 323.449 120.812 323.99 120.284C324.638 118.761 323.245 113.412 325.299 111.085C325.503 113.604 324.891 120.344 326.152 120.069C328.578 119.061 327.281 113.436 328.278 111.025C329.011 115.991 328.17 117.706 329.503 119.721C329.779 120.141 330.392 120.069 330.572 119.601C332.302 115.019 331.881 105.292 326.212 105.772" fill="#A0AEC0"/>
<path d="M341.288 106.348C334.477 103.133 336.387 117.07 338.105 120.572C338.501 121.244 338.537 121.388 339.077 120.86C339.726 119.337 338.333 113.988 340.387 111.661C340.591 114.18 339.978 120.92 341.24 120.644C343.666 119.637 342.369 114.012 343.366 111.601C344.098 116.566 343.257 118.281 344.591 120.284C344.867 120.704 345.48 120.632 345.66 120.164C347.389 115.583 346.969 105.856 341.3 106.336" fill="#A0AEC0"/>
<path d="M299.692 74.3488C299.957 72.5737 299.68 70.7627 300.077 68.9636C301.062 70.5948 301.746 72.8496 303.404 73.8931C303.524 73.6052 303.656 73.3174 303.8 73.0295C304.737 73.5692 305.35 74.5887 306.371 74.9845C306.995 73.7491 307.031 72.2859 306.983 70.8946C308.112 72.6697 309.217 74.6606 310.779 76.1119C311.44 75.5122 311.656 74.6247 311.464 73.6652C313.025 74.7926 314.19 77.3952 316.46 77.4072C316.929 76.2678 316.761 74.7686 317.241 73.6532C318.31 75.3443 320.088 76.2678 322.046 76.3158C322.79 74.9725 322.634 73.3054 322.694 71.8421C324.244 73.0775 326.502 74.6486 328.604 74.9725C329.084 73.4133 329.324 71.8062 329.264 70.151C330.49 71.3024 332.303 72.058 334.021 71.7222C334.021 70.283 333.901 68.7718 334.105 67.3685C335.919 67.0327 337.84 68.268 339.834 68.0881C339.942 66.1331 339.018 63.8903 339.414 62.1033C342.117 63.3146 345.336 63.6744 348.29 63.5665C348.374 62.3791 348.266 61.1318 348.422 59.9684C349.347 60.2083 350.621 60.8799 351.738 60.6161C352.17 59.0689 352.05 57.4857 352.026 55.9025C353.491 56.2504 357.779 58.2533 359.029 57.1499C359.941 56.3343 359.593 54.2954 359.737 53.2999C359.929 52.0046 360.302 50.8892 360.278 49.6299C360.182 45.3961 358.164 44.7005 356.302 41.0064C353.996 36.4488 347.882 30.2361 344.471 26.3022C343.138 24.767 341.852 23.1838 340.519 21.6366C336.087 17.3549 330.958 13.7568 325.096 12.3895C321.217 12.0777 317.193 12.6654 313.253 12.9412C300.293 17.7867 294.143 37.6962 295.789 58.3612L295.825 58.3133C295.825 58.3852 295.801 58.4572 295.801 58.5412C296.125 62.4751 296.738 66.445 297.627 70.3309C297.639 70.2949 297.663 70.271 297.675 70.235C298.047 71.7582 298.563 73.2694 299.704 74.3728L299.692 74.3488Z" fill="white"/>
<path d="M310.129 15.124C309.841 9.34307 317.744 9.12718 321.24 6.28468C323.402 4.52161 326.356 2.09889 328.11 0C328.326 3.04639 327.798 6.0568 325.275 8.02377C326.933 7.69994 328.398 6.62051 329.984 6.39263C330.32 7.99978 329.683 9.49899 328.002 9.77484C329.395 9.89478 330.813 9.77484 332.194 9.90677C331.749 12.5454 327.233 15.6158 324.879 16.1915C321.696 16.959 317.888 16.4193 314.633 16.4553C314.886 16.995 315.342 17.3428 315.967 17.5108" fill="white"/>
<path d="M334.862 36.113C334.862 39.5791 332.051 42.3857 328.58 42.3857C325.108 42.3857 322.298 39.5791 322.298 36.113C322.298 32.6468 325.108 29.8403 328.58 29.8403C332.051 29.8403 334.862 32.6468 334.862 36.113Z" fill="#D9DFE6"/>
<path d="M324.87 28.1011C325.831 29.7442 325.279 31.8431 323.633 32.8026C321.988 33.7621 319.886 33.2104 318.925 31.5672C317.964 29.9241 318.516 27.8252 320.162 26.8657C321.807 25.9062 323.909 26.4579 324.87 28.1011Z" fill="#A0AEC0"/>
<path d="M304.582 34.194C306.252 32.9467 309.867 32.4909 311.669 33.8942C311.465 34.7097 308.714 39.2193 307.789 39.3753C306.696 39.5432 303.837 36.065 303.249 34.9976" fill="#C6CED9"/>
<path d="M334.767 86.7143C338.298 92.5672 342.202 98.8039 346.574 104.153C348.58 106.6 352.291 110.93 355.354 111.889C355.702 110.282 353.841 106.768 353.24 105.305C357.756 110.246 365.564 119.805 373.167 118.725C373.203 117.058 369.299 113.472 367.678 112.705C370.897 113.544 374.128 116.794 377.419 118.126C379.653 119.025 382.247 119.265 384.566 118.941C385.19 114.923 380.566 112.465 379.185 108.987C381.251 110.846 384.109 113.22 385.142 110.042C386.896 104.621 379.052 99.7394 379.028 94.954C369.083 95.4457 357.504 90.0845 349.589 84.3516" fill="#A0AEC0"/>
<path d="M338.49 40.7905C333.866 43.4651 329.878 47.2071 327.488 52.4844C325.278 57.3658 324.929 62.607 325.097 67.9202C325.29 73.6652 327.572 79.2183 329.974 84.3995C331.295 87.254 334.082 87.9616 336.556 90.0725C336.532 89.5208 336.604 88.8612 336.508 88.3335C336.436 91.3079 340.652 95.3497 342.838 97.0289C342.718 95.6376 341.973 94.2823 341.745 92.8311C343.355 94.906 345.577 97.7845 347.511 99.1038C347.162 97.5566 346.237 95.9734 346.141 94.4862C349.673 97.9044 353.312 101.023 357 104.177C356.987 102.894 356.783 101.598 356.543 100.339C360.315 104.573 365.227 107.655 370.2 110.246C369.96 109.226 369.443 108.327 368.939 107.379C369.972 109.478 372.482 112.141 374.692 112.92C374.62 112.249 374.992 111.973 375.053 111.397C376.062 111.313 377.118 111.337 378.127 111.337C378.224 110.006 377.983 108.687 377.563 107.463C378.884 109.958 380.205 110.978 382.92 110.462C383.328 103.062 381.731 94.0424 380.097 86.9182C377.491 75.5722 372.062 64.2861 365.924 54.5233C362.224 48.6344 350.417 34.9736 338.49 40.7905Z" fill="#C6CED9"/>
</svg>
