<?xml version="1.0" encoding="utf-8"?>
<!-- Generator: Adobe Illustrator 16.0.0, SVG Export Plug-In . SVG Version: 6.00 Build 0)  -->
<!DOCTYPE svg PUBLIC "-//W3C//DTD SVG 1.1//EN" "http://www.w3.org/Graphics/SVG/1.1/DTD/svg11.dtd">
<svg version="1.1" id="Capa_1" xmlns="http://www.w3.org/2000/svg" xmlns:xlink="http://www.w3.org/1999/xlink" x="0px" y="0px"
	 width="300px" height="300px" viewBox="0 0 300 300" enable-background="new 0 0 300 300" xml:space="preserve">
<path fill-rule="evenodd" clip-rule="evenodd" fill="#7C58D3" d="M237.343,288.721v-35.54c3.64-3.538,8.348-4.929,11.188-5.925
	c0,0-0.607,22.332,1.433,28.513c2.04,6.183,10.726,6.779,11.339,10.37c0.612,3.586-2.964,4.984-2.964,4.984
	C247.585,290.91,241.159,291.792,237.343,288.721L237.343,288.721z M237.343,204.063v-11.369c1.738,3.023,2.646,7.068,2.401,12.141
	C238.979,204.541,238.164,204.271,237.343,204.063L237.343,204.063z M237.343,157.595v-4.078c0.702,1.909,1.396,3.812,2.038,5.774
	C238.724,158.698,238.045,158.132,237.343,157.595L237.343,157.595z M237.343,93.192V52.09c1.866-0.115,3.344-1.627,3.344-3.478
	c0-1.849-1.478-3.361-3.344-3.476V33.694c1.421,0.46,3.128,0.908,5.186,1.359c3.842,0.843,8.922,4.028,17.176,15.459
	c8.251,11.43,28.221,2.998,32.058,10.119c3.84,7.122-1.725,15.366-12.286,21.36c-10.557,5.995-20.537,6.747-30.71,6.747
	C243.822,88.739,240.097,90.416,237.343,93.192L237.343,93.192z M237.343,52.09c1.866-0.115,3.344-1.627,3.344-3.478
	c0-1.849-1.478-3.361-3.344-3.476V52.09z M237.343,33.694v11.442l-0.226-0.006c-1.339,0-2.502,0.717-3.111,1.778
	c0.582,0.689,0.935,1.574,0.935,2.541c0,0.577-0.124,1.126-0.353,1.622c0.647,0.633,1.543,1.025,2.529,1.025l0.226-0.006v41.103
	c-2.051,2.067-3.56,4.743-4.628,7.788c0.996,0.701,3.488,3.466-1.15,4.094h-0.034h-0.124l-0.15-0.006h-0.03l-0.132-0.006
	l-0.16-0.009h-0.017l-0.146-0.002l-0.159-0.009h-0.007l-0.155-0.006l-0.162-0.009l-0.08-0.006l-0.082-0.003l-0.08-0.006l-0.05-0.002
	l-0.035-0.003L229.882,105l-0.081-0.003l-0.086-0.006h-0.017l-0.067-0.006l-0.078-0.006l-0.086-0.006l-0.069-0.002l-0.013-0.003
	l-0.083-0.005l-0.084-0.004l-0.086-0.008l-0.037-0.003l-0.042-0.003l-0.085-0.01l-0.084-0.006l-0.087-0.006h-0.006l-0.076-0.006
	l-0.087-0.008l-0.086-0.006l-0.063-0.006h-0.024l-0.083-0.009l-0.085-0.009l-0.087-0.006l-0.028-0.003l-0.059-0.008l-0.086-0.006
	l-0.086-0.009l-0.083-0.009h-0.003l-0.09-0.009l-0.087-0.009l-0.085-0.009l-0.049-0.003l-0.039-0.006l-0.088-0.009l-0.091-0.009
	l-0.086-0.008l-0.019-0.003l-0.071-0.008l-0.09-0.009l-0.087-0.009l-0.068-0.008l-0.021-0.003l-0.09-0.009l-0.087-0.012
	l-0.094-0.008l-0.038-0.004l-0.051-0.008l-0.089-0.01l-0.091-0.011l-0.091-0.01h-0.005l-0.084-0.012l-0.089-0.012l-0.093-0.012
	l-0.06-0.005l-0.031-0.006l-0.09-0.012l-0.094-0.012l-0.093-0.012l-0.023-0.003l-0.069-0.009l-0.091-0.013l-0.093-0.014
	l-0.079-0.012h-0.01l-0.095-0.012l-0.093-0.015l-0.093-0.012l-0.048-0.006l-0.045-0.006l-0.093-0.014l-0.094-0.015
	c0.549,0.911,0.791,1.99,0.367,3.228l-1.944,5.682l-0.072,0.207V17.428c1.063-2.709,1.964-5.53,2.979-9.261
	C235.525,24.362,224.366,29.492,237.343,33.694L237.343,33.694z M237.343,45.137l-0.226-0.006c-1.339,0-2.502,0.717-3.111,1.778
	c-0.754-0.885-1.882-1.448-3.152-1.448c-2.257,0-4.086,1.787-4.086,3.988s1.829,3.988,4.086,3.988c1.666,0,3.099-0.97,3.734-2.366
	c0.647,0.633,1.543,1.025,2.529,1.025l0.226-0.006V45.137L237.343,45.137z M237.343,153.517v4.078
	c-4.143-3.171-9.034-5.319-14.299-6.086v-36.216c1.013,0.109,1.987,0.188,2.916,0.239c1.614,0.088,3.072,0.095,4.341,0.018
	c-0.255,7.909,0.787,15.893,1.916,21.39C233.521,143.318,235.475,148.438,237.343,153.517L237.343,153.517z M237.343,192.694v11.369
	c-5.094-1.302-10.551-0.358-7.648,9.941c1.201,4.262,2.182,17.696-3.5,27.933c-0.91,1.646-1.987,3.216-3.15,4.699v-49.409l0,0
	c1.163,0,2.102-0.92,2.102-2.052c0-1.134-0.938-2.054-2.102-2.054l0,0v-7.107C229.163,185.407,234.426,187.615,237.343,192.694
	L237.343,192.694z M237.343,253.181v35.54c-3.355-2.703-4.688-8.465-5.154-20.729C231.917,260.77,234.242,256.195,237.343,253.181
	L237.343,253.181z M223.044,267.47v-1.182c0.758,0.734,1.185,1.235,1.185,1.235L223.044,267.47L223.044,267.47z M223.044,197.228
	L223.044,197.228c1.163,0,2.102-0.92,2.102-2.052c0-1.134-0.938-2.054-2.102-2.054l0,0V197.228z M223.044,17.428v96.141
	c-0.235,0.648-0.503,1.185-0.792,1.636l0.792,0.088v36.216c-3.716-0.545-7.616-0.397-11.561,0.563v-8.616
	c1.907-1.912,3.6-4.33,4.621-7.427c3.457-10.487,4.071-18.2,2.098-17.718c-0.793,0.195-3.582,3.266-6.719,6.721v-11.958
	c1.219,0.301,2.409,0.572,3.573,0.82c0.404,0.033,0.827,0.129,1.279,0.239l0.492,0.112h0.015l0.066,0.015l0.072,0.012l0.063,0.015
	c1.191,0.212,2.573,0.156,3.276-1.901l1.943-5.683c0.303-0.929-0.622-1.798-1.582-2.429c-0.717-0.469-1.462-0.811-1.729-0.943
	l-0.068-0.015l-0.076-0.017c-2.384-0.514-4.845-1.124-7.326-1.819V12.325c0.607-2.679,1.005-4.456,1.005-4.536l5.662,20.052
	C220.313,23.653,221.792,20.616,223.044,17.428L223.044,17.428z M223.044,186.015v7.107c-1.159,0.002-2.102,0.92-2.102,2.054
	c0,1.132,0.942,2.052,2.102,2.052v49.409c-3.807,4.845-8.548,8.718-11.561,10.938v-67.479c0.583-0.345,1.169-0.674,1.77-0.986
	C216.607,187.355,219.935,186.321,223.044,186.015L223.044,186.015z M223.044,193.122c-1.159,0.002-2.102,0.92-2.102,2.054
	c0,1.132,0.942,2.052,2.102,2.052V193.122L223.044,193.122z M223.044,266.288v1.182c-3.406-0.169-7.344-0.417-11.561-0.431v-6.74
	c0.81,0.207,1.836,0.475,3.131,0.83C218.326,262.144,221.436,264.734,223.044,266.288L223.044,266.288z M211.483,109.495
	c1.086,0,1.964-0.857,1.964-1.918c0-1.061-0.878-1.919-1.964-1.919V109.495z M211.483,12.325v89.153
	c-3.53-0.994-7.103-2.164-10.57-3.49V51.412c1.497-3.773,2.863-7.602,4.088-11.489C205.496,38.361,209.562,20.808,211.483,12.325
	L211.483,12.325z M211.483,105.658v3.837c-1.084,0-1.964-0.857-1.964-1.918C209.52,106.516,210.399,105.658,211.483,105.658
	L211.483,105.658z M211.483,113.073v11.958c-4.321,4.761-9.291,10.24-10.57,9.895v-3c0.96-2.525,3.251-5.627,3.334-7.829
	c0.123-3.133,0.123-5.061-1.729-3.979c-0.287,0.171-0.853,0.569-1.604,1.146v-11.342c0.783,0.274,1.577,0.542,2.385,0.804
	l0.104,0.036l0.109,0.032l0.107,0.036l0.073,0.023l0.04,0.012l0.107,0.036l0.11,0.036l0.114,0.038l0.023,0.006l0.086,0.027
	l0.114,0.038l0.113,0.036l0.08,0.023l0.035,0.012l0.116,0.036l0.114,0.038l0.114,0.036l0.014,0.002
	C207.132,111.93,209.344,112.543,211.483,113.073L211.483,113.073z M211.483,143.456v8.616c-3.227,0.79-6.492,2.125-9.708,4.082
	c0,0-0.425-0.492-0.862-1.206v-4.441C202.721,149.21,207.56,147.395,211.483,143.456L211.483,143.456z M211.483,190.097v67.479
	c-1.798,1.323-2.984,2.059-2.984,2.059s0.385,0,2.984,0.665v6.74c-3.382-0.012-6.946,0.126-10.57,0.575v-68.89
	C204.167,195.29,207.648,192.365,211.483,190.097L211.483,190.097z M200.913,105.734v-3.837l0,0c1.083,0,1.967,0.858,1.967,1.919
	C202.88,104.874,201.996,105.734,200.913,105.734L200.913,105.734z M200.913,51.412v46.577c-5.622-2.152-10.964-4.716-15.402-7.607
	l-0.136-0.089l-0.127-0.085l-0.007-0.006l-0.135-0.085l-0.116-0.079l-0.015-0.012l-0.132-0.089l-0.109-0.073l-0.021-0.012
	l-0.127-0.091l-0.103-0.068l-0.025-0.021l-0.128-0.088l-0.095-0.062l-0.03-0.027l-0.128-0.088l-0.081-0.059l-0.043-0.029
	l-0.125-0.088l-0.068-0.054l-0.049-0.036l-0.123-0.088l-0.065-0.047l-0.054-0.042l-0.116-0.088l-0.06-0.044l-0.058-0.044
	l-0.114-0.088l-0.051-0.039l-0.063-0.05l-0.116-0.088l-0.042-0.033l-0.073-0.056l-0.106-0.088l-0.037-0.026l-0.072-0.062
	l-0.111-0.085l-0.031-0.027l-0.079-0.062l-0.104-0.089l-0.027-0.021l-0.08-0.07l-0.105-0.086l-0.019-0.014l-0.003-0.003l0.048-0.074
	c-2.246-2.458,0.795-3.775,1.859-2.959C190.491,74.131,196.302,63.04,200.913,51.412L200.913,51.412z M200.913,101.896v3.837
	c-1.088-0.002-1.964-0.86-1.964-1.918C198.949,102.754,199.825,101.896,200.913,101.896L200.913,101.896z M200.913,109.923
	c-7.45-2.597-13.881-5.657-18.402-8.604c-1.021-0.662-1.938-1.311-2.747-1.938v46.892c1.457-0.2,2.697-0.386,3.494-0.961
	c2.839-2.051,0-2.653,2.097-8.077c1.771-4.58,11.469-12.85,15.559-15.969V109.923L200.913,109.923z M200.913,131.926v3
	c-0.11-0.029-0.192-0.103-0.249-0.224C200.337,133.954,200.506,132.989,200.913,131.926L200.913,131.926z M200.913,150.507v4.441
	c-0.67-1.09-1.363-2.693-0.618-3.858C200.416,150.904,200.626,150.713,200.913,150.507L200.913,150.507z M200.913,198.725v68.89
	c-7.169,0.886-14.55,2.987-21.149,7.546v-45.191C186.622,218.084,193.112,206.955,200.913,198.725L200.913,198.725z
	 M179.764,162.009v-4.971h0.005c1.404,0,2.543,1.111,2.543,2.485c0,1.37-1.139,2.485-2.543,2.485H179.764z M179.764,99.38v46.892
	c-3.733,0.51-8.923,1.111-11.946,8.565c-4.196,10.363-6.174,10.484-6.419,14.218c-0.248,3.74,8.024,6.149,12.223,9.767
	c6.876,5.917,5.502,9.331,2.101,12.151c-1.728,1.141-3.314,2.24-4.736,3.278c-0.973,0.643-1.919,1.297-2.744,1.987
	c-0.231,0.193-0.435,0.389-0.614,0.578c-0.817,0.658-1.542,1.272-2.164,1.839c-10.64,9.613-21.186,1.367-26.683-6.521V143.61
	c12.955-14.947,26.148-30.651,37.702-47.481C177.118,97.096,178.239,98.195,179.764,99.38L179.764,99.38z M179.764,157.038
	c-1.404,0-2.543,1.111-2.543,2.485c0,1.37,1.139,2.482,2.543,2.485V157.038L179.764,157.038z M179.764,229.969v45.191
	c-5.196,3.587-9.911,8.696-13.657,15.939H138.78v-12.224c15.232-6.941,24.682-21.537,33.31-35.802
	C174.747,238.676,177.28,234.272,179.764,229.969L179.764,229.969z M138.78,235.843l5.77-3.938l-0.138-0.204
	c-1.318-1.842-3.488-2.757-5.631-2.593V235.843z M131.343,252.874c0.618-0.399,1.187-0.693,1.598-0.763
	c1.587-0.267,2.633,2.216,2.226,4.604c-0.286,1.677-2.088,2.114-3.824,1.982V252.874L131.343,252.874z M138.78,143.61v48.524
	c-0.598-0.86-1.139-1.715-1.608-2.54c-1.975-3.458-4.021-6.088-5.829-7.59v-29.846C133.803,149.334,136.288,146.487,138.78,143.61
	L138.78,143.61z M138.78,229.108v6.734l-4.483,3.063l-0.152-0.198c-1.981-2.768-1.291-6.582,1.543-8.515
	C136.637,229.547,137.707,229.194,138.78,229.108L138.78,229.108z M138.78,278.876V291.1h-7.438v-9.585
	c0.528-0.146,1.052-0.293,1.584-0.451C134.97,280.459,136.92,279.726,138.78,278.876z M128.072,255.417
	c0.776-0.678,2.108-1.796,3.271-2.543v5.824c-0.745-0.058-1.48-0.215-2.077-0.428C127.729,257.723,126.705,256.607,128.072,255.417
	L128.072,255.417z M131.343,152.158v29.846c-2.602-2.158-4.714-1.986-5.421,1.406c-1.201,5.756-4.258,24.946-4.258,24.946
	s-5.86,1.097-12.4,4.208v-34.539C116.134,169.598,123.629,161.003,131.343,152.158L131.343,152.158z M131.343,281.515v9.585h-22.08
	v-7.835C115.813,284.275,123.177,283.743,131.343,281.515L131.343,281.515z M109.263,255.95v-6.892
	c2.026-0.196,4.107,0.576,5.484,2.231l0.158,0.198L109.263,255.95z M109.263,178.025v34.539c-2.115,1.008-4.303,2.225-6.388,3.684
	c-8.521,5.971-11.357,13.22-11.357,13.22s-4.442-0.801-12.728-2.061C84.201,211.188,95.469,194.945,109.263,178.025L109.263,178.025
	z M109.263,249.059v6.892l-4.08,3.228l-0.165-0.189c-2.178-2.623-1.764-6.472,0.925-8.597
	C106.93,249.609,108.086,249.171,109.263,249.059L109.263,249.059z M109.263,283.265c-10.66-1.647-19.157-7.393-25.424-16.604
	c-3.192-4.689-5.704-9.807-8.389-14.904c0.172,11.022-13.583,11.787-20.961,9.248c-35.177-12.102-36.681-70.149-36.567-98.965
	c0.024-5.433-6.295-5.988-6.833-0.76c-0.725,7.056-1.663,23.447-0.563,37.869c5.912,77.325,46.065,92.633,79.171,91.95h19.568
	V283.265z"/>
</svg>
